####
#
# OBJ File Generated by Meshlab
#
####
# Object seagull-low-poly_no_tex.obj
#
# Vertices: 239
# Faces: 480
#
####
v 0.045018 0.069661 -0.069661
v 0.033242 -0.075630 -0.072596
v 0.045018 0.069661 0.069661
v 0.036604 -0.069661 0.069661
v 0.040539 0.060704 0.175726
v 0.032125 -0.060704 0.175726
v 0.033261 0.042725 0.257673
v 0.021934 -0.032455 0.256878
v 0.023250 0.038648 0.320327
v 0.014633 -0.026962 0.318867
v 0.012589 0.027115 0.335881
v 0.006101 -0.016750 0.334191
v 0.002075 0.013316 0.355716
v 0.025923 0.031472 -0.282327
v 0.017509 -0.031472 -0.282327
v 0.006468 0.007255 -0.485238
v 0.053132 -0.003650 -0.141026
v 0.053132 -0.013903 -0.141026
v 0.060233 -0.002239 0.130172
v 0.060233 -0.012491 0.130172
v 0.031112 0.002418 -0.485238
v 0.083533 -0.005376 -0.492835
v 0.065183 0.020235 0.175726
v 0.065183 -0.020235 0.175726
v 0.056827 0.015771 0.257156
v 0.053899 -0.012741 0.257732
v 0.036764 0.015561 0.320898
v 0.034736 -0.007299 0.320908
v 0.020460 0.006400 0.356154
v 0.020320 -0.001677 0.356120
v 0.027896 0.012009 0.336300
v 0.026869 -0.003864 0.336161
v 0.003265 0.001979 0.430235
v 0.002594 -0.000767 0.428401
v 0.050567 0.010491 -0.282327
v 0.102988 -0.013448 -0.289923
v 0.268419 -0.003650 -0.141026
v 0.268419 -0.013903 -0.141026
v 0.276833 -0.003103 0.131020
v 0.276833 -0.013356 0.131020
v 0.698352 -0.003981 -0.142444
v 0.698352 -0.010392 -0.142444
v 0.730984 -0.005427 -0.029637
v 0.734471 -0.010627 -0.030799
v 0.804629 -0.004756 -0.183495
v 0.804629 -0.008511 -0.183495
v 0.815790 -0.006501 -0.109539
v 0.819277 -0.010256 -0.110701
v 0.026587 0.040007 0.299442
v 0.029924 0.041366 0.278557
v 0.041116 0.033740 0.257500
v 0.048971 0.024755 0.257328
v 0.027755 0.030952 0.320517
v 0.032259 0.023256 0.320708
v 0.050139 0.015701 0.278403
v 0.043452 0.015631 0.299651
v 0.043401 0.024256 0.278455
v 0.037830 0.023756 0.299581
v 0.036662 0.032811 0.278506
v 0.032208 0.031882 0.299512
v 0.053132 -0.003650 -0.141026
v 0.053132 -0.013903 -0.141026
v 0.268419 -0.003650 -0.141026
v 0.268419 -0.013903 -0.141026
v 0.030007 0.027104 0.320612
v 0.035045 0.023506 0.310144
v 0.029982 0.031417 0.310014
v 0.035019 0.027819 0.299546
v 0.032513 0.027462 0.310079
v 0.045018 0.069661 0.000000
v 0.036604 -0.069661 0.000000
v 0.056682 -0.013197 -0.005427
v 0.056682 -0.002944 -0.005427
v 0.272626 -0.013629 -0.005003
v 0.272626 -0.003377 -0.005003
v 0.726564 -0.011526 -0.076364
v 0.726564 -0.004704 -0.076364
v 0.819678 -0.009731 -0.166791
v 0.819678 -0.005976 -0.166791
v 0.008754 -0.019363 -0.383783
v 0.016196 0.019363 -0.383783
v 0.040839 0.006454 -0.383783
v 0.093260 -0.009412 -0.391379
v 0.033242 -0.075630 -0.051439
v 0.022126 -0.075630 -0.072596
v 0.018302 -0.069661 0.000000
v 0.022126 -0.075630 -0.051439
v 0.033242 -0.097560 -0.056312
v 0.033242 -0.079744 -0.067722
v 0.022126 -0.079744 -0.067722
v 0.022126 -0.097560 -0.056312
v 0.054547 -0.095202 -0.135473
v 0.053749 -0.080785 -0.130818
v 0.044330 -0.080785 -0.130818
v 0.042879 -0.095202 -0.135473
v 0.082866 -0.126816 -0.183463
v 0.078877 -0.072251 -0.159280
v 0.036333 -0.070367 -0.161011
v 0.033420 -0.124932 -0.185194
v 0.003092 -0.001324 0.430724
v 0.003022 0.000536 0.432131
v -0.045018 0.069661 -0.069661
v -0.033242 -0.075630 -0.072596
v -0.045018 0.069661 0.069661
v -0.036604 -0.069661 0.069661
v 0.000000 -0.069661 -0.069661
v 0.000000 0.069661 0.069661
v 0.000000 -0.069661 0.069661
v 0.000000 0.069661 -0.069661
v -0.040539 0.060704 0.175726
v -0.032125 -0.060704 0.175726
v 0.000000 -0.060704 0.175726
v 0.000000 0.060704 0.175726
v -0.033261 0.042725 0.257673
v -0.021934 -0.032455 0.256878
v 0.000000 -0.031125 0.255676
v 0.000000 0.039355 0.258224
v -0.023250 0.038648 0.320327
v -0.014633 -0.026962 0.318867
v 0.000000 -0.026814 0.317649
v 0.000000 0.035945 0.320061
v -0.012589 0.027115 0.335881
v -0.006101 -0.016750 0.334191
v 0.000000 -0.017463 0.333389
v 0.000000 0.025490 0.335377
v -0.002075 0.013316 0.355716
v 0.000000 -0.008991 0.354842
v 0.000000 -0.009155 0.354770
v 0.000000 0.012883 0.355447
v 0.000000 0.003750 0.431166
v 0.000000 -0.002719 0.426494
v 0.000000 -0.001834 0.426921
v 0.000000 0.003748 0.431142
v -0.025923 0.031472 -0.282327
v -0.017509 -0.031472 -0.282327
v 0.000000 0.031472 -0.282327
v 0.000000 -0.031472 -0.282327
v -0.006468 0.007255 -0.485238
v 0.000000 -0.007255 -0.485238
v 0.000000 0.007255 -0.485238
v 0.000000 -0.007255 -0.485238
v -0.053132 -0.003650 -0.141026
v -0.053132 -0.013903 -0.141026
v -0.060233 -0.002239 0.130172
v -0.060233 -0.012491 0.130172
v -0.031112 0.002418 -0.485238
v -0.083533 -0.005376 -0.492835
v -0.065183 0.020235 0.175726
v -0.065183 -0.020235 0.175726
v -0.056827 0.015771 0.257156
v -0.053899 -0.012741 0.257732
v -0.036764 0.015561 0.320898
v -0.034736 -0.007299 0.320908
v -0.020460 0.006400 0.356154
v -0.020320 -0.001677 0.356120
v -0.027896 0.012009 0.336300
v -0.026869 -0.003864 0.336161
v -0.003265 0.001979 0.430235
v -0.002594 -0.000767 0.428401
v -0.050567 0.010491 -0.282327
v -0.102988 -0.013448 -0.289923
v 0.000000 0.002418 -0.485238
v 0.000000 -0.002418 -0.485238
v -0.268419 -0.003650 -0.141026
v -0.268419 -0.013903 -0.141026
v -0.276833 -0.003103 0.131020
v -0.276833 -0.013356 0.131020
v -0.698352 -0.003981 -0.142444
v -0.698352 -0.010392 -0.142444
v -0.730984 -0.005427 -0.029637
v -0.734471 -0.010627 -0.030799
v -0.804629 -0.004756 -0.183495
v -0.804629 -0.008511 -0.183495
v -0.815790 -0.006501 -0.109539
v -0.819277 -0.010256 -0.110701
v -0.026587 0.040007 0.299442
v -0.029924 0.041366 0.278557
v -0.041116 0.033740 0.257500
v -0.048971 0.024755 0.257328
v -0.027755 0.030952 0.320517
v -0.032259 0.023256 0.320708
v -0.050139 0.015701 0.278403
v -0.043452 0.015631 0.299651
v -0.043401 0.024256 0.278455
v -0.037830 0.023756 0.299581
v -0.036662 0.032811 0.278506
v -0.032208 0.031882 0.299512
v -0.053132 -0.003650 -0.141026
v -0.053132 -0.013903 -0.141026
v -0.268419 -0.003650 -0.141026
v -0.268419 -0.013903 -0.141026
v -0.030007 0.027104 0.320612
v -0.035045 0.023506 0.310144
v -0.029982 0.031417 0.310014
v -0.035019 0.027819 0.299546
v -0.032513 0.027462 0.310079
v -0.045018 0.069661 0.000000
v -0.036604 -0.069661 0.000000
v 0.000000 0.069661 0.000000
v 0.000000 -0.069661 0.000000
v -0.056682 -0.013197 -0.005427
v -0.056682 -0.002944 -0.005427
v -0.272626 -0.013629 -0.005003
v -0.272626 -0.003377 -0.005003
v -0.726564 -0.011526 -0.076364
v -0.726564 -0.004704 -0.076364
v -0.819678 -0.009731 -0.166791
v -0.819678 -0.005976 -0.166791
v 0.000000 0.019363 -0.383783
v 0.000000 -0.019363 -0.383783
v -0.008754 -0.019363 -0.383783
v -0.016196 0.019363 -0.383783
v -0.040839 0.006454 -0.383783
v -0.093260 -0.009412 -0.391379
v -0.033242 -0.075630 -0.051439
v -0.022126 -0.075630 -0.072596
v 0.000000 -0.069661 -0.034831
v -0.018302 -0.069661 0.000000
v -0.022126 -0.075630 -0.051439
v -0.033242 -0.097560 -0.056312
v -0.033242 -0.079744 -0.067722
v -0.022126 -0.079744 -0.067722
v -0.022126 -0.097560 -0.056312
v -0.054547 -0.095202 -0.135473
v -0.053749 -0.080785 -0.130818
v -0.044330 -0.080785 -0.130818
v -0.042879 -0.095202 -0.135473
v -0.082866 -0.126816 -0.183463
v -0.078877 -0.072251 -0.159280
v -0.036333 -0.070367 -0.161011
v -0.033420 -0.124932 -0.185194
v -0.003092 -0.001324 0.430724
v 0.000000 -0.001909 0.429650
v 0.000000 -0.001909 0.429650
v 0.000000 0.002307 0.433062
v 0.000000 0.002306 0.433038
v 0.000000 -0.001415 0.430241
v -0.003022 0.000536 0.432131
v 0.000000 0.000446 0.431648
# 239 vertices, 0 vertices normals

f 200 86 71
f 200 71 4
f 200 4 108
f 73 70 3
f 73 3 19
f 137 15 2
f 137 2 85
f 137 85 106
f 70 199 107
f 70 107 3
f 108 4 6
f 108 6 112
f 5 113 117
f 5 117 7
f 19 3 5
f 19 5 23
f 3 107 113
f 3 113 5
f 7 117 50
f 50 117 121
f 50 121 49
f 49 121 9
f 23 5 7
f 23 7 51
f 23 51 52
f 23 52 25
f 112 6 8
f 112 8 116
f 120 10 12
f 120 12 124
f 60 49 9
f 60 9 53
f 60 53 67
f 116 8 10
f 116 10 120
f 124 12 127
f 124 127 128
f 9 121 125
f 9 125 11
f 11 31 27
f 11 27 54
f 11 54 65
f 11 65 53
f 11 53 9
f 128 127 131
f 128 131 132
f 11 125 129
f 11 129 13
f 31 11 13
f 31 13 29
f 34 33 101
f 34 101 100
f 13 129 133
f 13 133 130
f 29 13 130
f 29 130 33
f 80 210 141
f 80 141 139
f 109 1 14
f 109 14 136
f 18 2 15
f 18 15 36
f 162 140 16
f 162 16 21
f 83 80 139
f 83 139 22
f 209 81 16
f 209 16 140
f 81 82 21
f 81 21 16
f 82 83 22
f 82 22 21
f 141 163 22
f 141 22 139
f 163 162 21
f 163 21 22
f 1 17 35
f 1 35 14
f 17 18 36
f 17 36 35
f 127 30 34
f 127 34 131
f 30 29 33
f 30 33 34
f 131 34 100
f 131 100 233
f 130 133 236
f 130 236 235
f 12 32 30
f 12 30 127
f 32 31 29
f 32 29 30
f 10 28 32
f 10 32 12
f 28 27 31
f 28 31 32
f 8 26 28
f 8 28 10
f 26 25 55
f 26 55 56
f 26 56 27
f 26 27 28
f 6 24 26
f 6 26 8
f 24 23 25
f 24 25 26
f 4 20 24
f 4 24 6
f 20 19 23
f 20 23 24
f 71 72 20
f 71 20 4
f 19 20 40
f 19 40 39
f 39 40 44
f 39 44 43
f 18 17 61
f 18 61 62
f 73 19 39
f 73 39 75
f 72 18 38
f 72 38 74
f 76 42 46
f 76 46 78
f 74 38 42
f 74 42 76
f 38 37 41
f 38 41 42
f 75 39 43
f 75 43 77
f 78 79 47
f 78 47 48
f 42 41 45
f 42 45 46
f 77 43 47
f 77 47 79
f 43 44 48
f 43 48 47
f 56 58 66
f 56 66 54
f 56 54 27
f 69 67 53
f 69 53 65
f 25 52 57
f 25 57 55
f 55 57 58
f 55 58 56
f 52 51 59
f 52 59 57
f 57 59 60
f 57 60 68
f 57 68 58
f 51 7 50
f 51 50 59
f 59 50 49
f 59 49 60
f 62 61 63
f 62 63 64
f 17 37 63
f 17 63 61
f 37 38 64
f 37 64 63
f 38 18 62
f 38 62 64
f 66 69 65
f 66 65 54
f 58 68 69
f 58 69 66
f 68 60 67
f 68 67 69
f 41 77 79
f 41 79 45
f 46 45 79
f 46 79 78
f 37 75 77
f 37 77 41
f 40 74 76
f 40 76 44
f 44 76 78
f 44 78 48
f 20 72 74
f 20 74 40
f 17 73 75
f 17 75 37
f 2 18 72
f 2 72 71
f 2 71 84
f 1 109 199
f 1 199 70
f 17 1 70
f 17 70 73
f 87 84 71
f 87 71 86
f 35 36 83
f 35 83 82
f 14 35 82
f 14 82 81
f 136 14 81
f 136 81 209
f 36 15 80
f 36 80 83
f 15 137 210
f 15 210 80
f 217 87 86
f 217 86 200
f 106 85 87
f 106 87 217
f 2 84 88
f 2 88 89
f 88 91 95
f 88 95 92
f 84 87 91
f 84 91 88
f 87 85 90
f 87 90 91
f 85 2 89
f 85 89 90
f 94 93 97
f 94 97 98
f 90 89 93
f 90 93 94
f 91 90 94
f 91 94 95
f 89 88 92
f 89 92 93
f 98 97 96
f 98 96 99
f 95 94 98
f 95 98 99
f 93 92 96
f 93 96 97
f 92 95 99
f 92 99 96
f 101 235 236
f 101 236 239
f 233 100 237
f 233 237 234
f 100 101 239
f 100 239 237
f 132 131 233
f 132 233 234
f 33 130 235
f 33 235 101
f 200 108 105
f 200 105 198
f 200 198 218
f 202 144 104
f 202 104 197
f 135 137 106
f 135 106 216
f 135 216 103
f 197 104 107
f 197 107 199
f 108 112 111
f 108 111 105
f 110 114 117
f 110 117 113
f 144 148 110
f 144 110 104
f 104 110 113
f 104 113 107
f 121 117 177
f 121 177 176
f 121 176 118
f 177 117 114
f 148 150 179
f 148 179 178
f 148 178 114
f 148 114 110
f 112 116 115
f 112 115 111
f 120 124 123
f 120 123 119
f 187 194 180
f 187 180 118
f 187 118 176
f 116 120 119
f 116 119 115
f 124 128 127
f 124 127 123
f 118 122 125
f 118 125 121
f 122 118 180
f 122 180 192
f 122 192 181
f 122 181 152
f 122 152 156
f 122 126 129
f 122 129 125
f 156 154 126
f 156 126 122
f 159 232 238
f 159 238 158
f 126 130 133
f 126 133 129
f 154 158 130
f 154 130 126
f 211 139 141
f 211 141 210
f 109 136 134
f 109 134 102
f 143 161 135
f 143 135 103
f 162 146 138
f 162 138 140
f 214 147 139
f 214 139 211
f 209 140 138
f 209 138 212
f 212 138 146
f 212 146 213
f 213 146 147
f 213 147 214
f 141 139 147
f 141 147 163
f 163 147 146
f 163 146 162
f 102 134 160
f 102 160 142
f 142 160 161
f 142 161 143
f 127 131 159
f 127 159 155
f 155 159 158
f 155 158 154
f 131 233 232
f 131 232 159
f 123 127 155
f 123 155 157
f 157 155 154
f 157 154 156
f 119 123 157
f 119 157 153
f 153 157 156
f 153 156 152
f 115 119 153
f 115 153 151
f 151 153 152
f 151 152 183
f 151 183 182
f 151 182 150
f 111 115 151
f 111 151 149
f 149 151 150
f 149 150 148
f 105 111 149
f 105 149 145
f 145 149 148
f 145 148 144
f 198 105 145
f 198 145 201
f 144 166 167
f 144 167 145
f 166 170 171
f 166 171 167
f 143 189 188
f 143 188 142
f 202 204 166
f 202 166 144
f 201 203 165
f 201 165 143
f 205 207 173
f 205 173 169
f 203 205 169
f 203 169 165
f 165 169 168
f 165 168 164
f 204 206 170
f 204 170 166
f 207 175 174
f 207 174 208
f 169 173 172
f 169 172 168
f 206 208 174
f 206 174 170
f 170 174 175
f 170 175 171
f 183 152 181
f 183 181 193
f 183 193 185
f 196 192 180
f 196 180 194
f 150 182 184
f 150 184 179
f 182 183 185
f 182 185 184
f 179 184 186
f 179 186 178
f 184 185 195
f 184 195 187
f 184 187 186
f 178 186 177
f 178 177 114
f 186 187 176
f 186 176 177
f 189 191 190
f 189 190 188
f 142 188 190
f 142 190 164
f 164 190 191
f 164 191 165
f 165 191 189
f 165 189 143
f 193 181 192
f 193 192 196
f 185 193 196
f 185 196 195
f 195 196 194
f 195 194 187
f 168 172 208
f 168 208 206
f 173 207 208
f 173 208 172
f 164 168 206
f 164 206 204
f 167 171 205
f 167 205 203
f 171 175 207
f 171 207 205
f 145 167 203
f 145 203 201
f 142 164 204
f 142 204 202
f 103 215 198
f 103 198 201
f 103 201 143
f 102 197 199
f 102 199 109
f 142 202 197
f 142 197 102
f 219 218 198
f 219 198 215
f 160 213 214
f 160 214 161
f 134 212 213
f 134 213 160
f 136 209 212
f 136 212 134
f 161 214 211
f 161 211 135
f 135 211 210
f 135 210 137
f 217 200 218
f 217 218 219
f 106 217 219
f 106 219 216
f 103 221 220
f 103 220 215
f 220 224 227
f 220 227 223
f 215 220 223
f 215 223 219
f 219 223 222
f 219 222 216
f 216 222 221
f 216 221 103
f 226 230 229
f 226 229 225
f 222 226 225
f 222 225 221
f 223 227 226
f 223 226 222
f 221 225 224
f 221 224 220
f 230 231 228
f 230 228 229
f 227 231 230
f 227 230 226
f 225 229 228
f 225 228 224
f 224 228 231
f 224 231 227
f 238 239 236
f 238 236 235
f 233 234 237
f 233 237 232
f 232 237 239
f 232 239 238
f 158 238 235
f 158 235 130
# 480 faces, 0 coords texture

# End of File
